<svg id="Icon_awesome-fingerprint" data-name="Icon awesome-fingerprint" xmlns="http://www.w3.org/2000/svg" width="88.288" height="88.289" viewBox="0 0 88.288 88.289">
  <path id="Icon_awesome-fingerprint-2" data-name="Icon awesome-fingerprint" d="M44.164,42.413a4.138,4.138,0,0,0-4.139,4.139,126.092,126.092,0,0,1-4.777,36.479c-.471,1.676.371,5.258,3.987,5.258a4.14,4.14,0,0,0,3.982-3.021A133.462,133.462,0,0,0,48.3,46.552a4.136,4.136,0,0,0-4.137-4.139ZM44.016,28.32c-10.564-.012-17.935,8.117-17.789,17.432a113.135,113.135,0,0,1-2.306,24.581,4.138,4.138,0,1,0,8.1,1.676A121.4,121.4,0,0,0,34.5,45.622,8.985,8.985,0,0,1,43.893,36.6a9.981,9.981,0,0,1,9.936,9.565A138.632,138.632,0,0,1,52,70.915a4.137,4.137,0,0,0,3.407,4.756c3.444.574,4.623-2.6,4.756-3.409a147.09,147.09,0,0,0,1.943-26.23A18.32,18.32,0,0,0,44.016,28.32ZM24.929,24.909a4.142,4.142,0,0,0-5.822.6,29.908,29.908,0,0,0-6.682,19.313,100.143,100.143,0,0,1-1.571,19.322A4.14,4.14,0,0,0,19,65.615a108.46,108.46,0,0,0,1.7-20.922A21.311,21.311,0,0,1,25.53,30.73a4.141,4.141,0,0,0-.6-5.822ZM43.805,14.161a30.823,30.823,0,0,0-7.894.857,4.14,4.14,0,0,0,1.907,8.056,24.749,24.749,0,0,1,5.863-.636c13.007.195,23.75,10.6,23.948,23.207a151.931,151.931,0,0,1-.962,19.594,4.139,4.139,0,0,0,8.224.943,160.205,160.205,0,0,0,1.016-20.667c-.269-17.028-14.669-31.1-32.1-31.355ZM87.272,35.1a4.138,4.138,0,1,0-8.082,1.783A43,43,0,0,1,80,47.509a4.138,4.138,0,0,0,4.1,4.173h.034a4.138,4.138,0,0,0,4.139-4.1A51.242,51.242,0,0,0,87.272,35.1ZM80.354,19.46A45.87,45.87,0,0,0,43.593,0,43.192,43.192,0,0,0,12.149,12.578,41.125,41.125,0,0,0,.023,42.532L0,46.234a4.136,4.136,0,0,0,4.014,4.258c.04,0,.083,0,.124,0a4.14,4.14,0,0,0,4.133-4.018L8.3,42.4a32.9,32.9,0,0,1,9.7-23.969A34.946,34.946,0,0,1,43.473,8.282,37.567,37.567,0,0,1,73.584,24.214a4.136,4.136,0,1,0,6.77-4.754Z" transform="translate(-0.001 0)" fill="#0fd3c4"/>
</svg>
