<svg xmlns="http://www.w3.org/2000/svg" width="52.83" height="39.623" viewBox="0 0 52.83 39.623">
  <path id="Icon_awesome-image" data-name="Icon awesome-image" d="M47.877,44.123H4.953A4.953,4.953,0,0,1,0,39.17V9.453A4.953,4.953,0,0,1,4.953,4.5H47.877A4.953,4.953,0,0,1,52.83,9.453V39.17A4.953,4.953,0,0,1,47.877,44.123ZM11.557,10.278a5.778,5.778,0,1,0,5.778,5.778A5.778,5.778,0,0,0,11.557,10.278ZM6.6,37.519H46.226V25.962l-9.03-9.03a1.238,1.238,0,0,0-1.751,0L21.462,30.915l-5.728-5.728a1.238,1.238,0,0,0-1.751,0L6.6,32.566Z" transform="translate(0 -4.5)" fill="#dcdcdc"/>
</svg>
